<svg id="Group_1634" data-name="Group 1634" xmlns="http://www.w3.org/2000/svg" xmlns:xlink="http://www.w3.org/1999/xlink" width="132.126" height="42.312" viewBox="0 0 132.126 42.312">
  <defs>
    <clipPath id="clip-path">
      <path id="Path_451" data-name="Path 451" d="M13.158,62.738c-.317,0-.632-.008-.946-.022a19.2,19.2,0,0,0,6,3.9,20.9,20.9,0,0,1-3.042-3.97c-.663.063-1.334.1-2.013.1" transform="translate(-12.212 -62.641)" fill="none"/>
    </clipPath>
    <linearGradient id="linear-gradient" x1="-1.071" y1="2.355" x2="-0.983" y2="2.355" gradientUnits="objectBoundingBox">
      <stop offset="0" stop-color="#185cd5"/>
      <stop offset="1" stop-color="#2656c4"/>
    </linearGradient>
    <clipPath id="clip-path-2">
      <path id="Path_452" data-name="Path 452" d="M20.128,0a19.176,19.176,0,0,0-15,31.129,20.753,20.753,0,0,0,3.048-.486A16.56,16.56,0,0,1,20.128,2.617c.336,0,.669.014,1,.033q.83.051,1.638.178c.052.009.1.015.154.024a9.663,9.663,0,0,1,3.071-.791c.285-.025.573-.042.864-.042a9.746,9.746,0,0,1,2.438.308q-.76-.414-1.561-.761a19.153,19.153,0,0,0-6.3-1.522C21,.016,20.568,0,20.128,0Z" transform="translate(-0.951)" fill="none"/>
    </clipPath>
    <linearGradient id="linear-gradient-2" x1="-0.018" y1="1.359" x2="0.001" y2="1.359" xlink:href="#linear-gradient"/>
    <clipPath id="clip-path-3">
      <path id="Path_453" data-name="Path 453" d="M51.321,43.607a16.52,16.52,0,0,1-5.658,12.464,19.078,19.078,0,0,0,6.123-2.614,16.581,16.581,0,0,0-1.3-15.047,16.538,16.538,0,0,1,.833,5.2" transform="translate(-45.663 -38.41)" fill="none"/>
    </clipPath>
    <linearGradient id="linear-gradient-3" x1="-3.27" y1="1.251" x2="-3.198" y2="1.251" gradientUnits="objectBoundingBox">
      <stop offset="0" stop-color="#f4ce6c"/>
      <stop offset="1" stop-color="#d6aa46"/>
    </linearGradient>
    <clipPath id="clip-path-4">
      <path id="Path_454" data-name="Path 454" d="M29.789,57.067q-.73.32-1.487.592a8.849,8.849,0,0,0,8.741,7.446c.263,0,.523-.014.78-.036a9.272,9.272,0,0,1-8.39-6.8,38.387,38.387,0,0,0,4.173-3.347,22.593,22.593,0,0,1-3.817,2.144" transform="translate(-28.302 -54.923)" fill="none"/>
    </clipPath>
    <linearGradient id="linear-gradient-4" x1="-1.564" y1="1.317" x2="-1.509" y2="1.317" xlink:href="#linear-gradient-3"/>
    <clipPath id="clip-path-5">
      <path id="Path_455" data-name="Path 455" d="M57.768,37.39a14.034,14.034,0,0,1-2.05,11.991,19.289,19.289,0,0,0,5.842-6.371,14.081,14.081,0,0,0-8.42-12.652,14,14,0,0,1,4.627,7.033" transform="translate(-53.141 -30.357)" fill="none"/>
    </clipPath>
    <linearGradient id="linear-gradient-5" x1="-3.321" y1="1.384" x2="-3.259" y2="1.384" xlink:href="#linear-gradient-3"/>
    <clipPath id="clip-path-6">
      <path id="Path_456" data-name="Path 456" d="M32.374,23.339a.593.593,0,0,0-.134-.047Zm-2.36.092c-.828.674-.8,1.471-1.563,1.44,0,0,.827.246,1.2-.275,0,0-.153.46.276.582s1.073.429.644.583-1.134-.583-1.134-.583a1.492,1.492,0,0,0,.429.828c.368.337,1.073.123,1.073.123a.733.733,0,0,1-.061.705,1.373,1.373,0,0,0,.644-.92,7.121,7.121,0,0,0,0-1.226.6.6,0,0,1-.583.245s.551-.551.551-.828a2.169,2.169,0,0,0-.245-.735,2.539,2.539,0,0,1,1-.078l-.478-.168a1.794,1.794,0,0,0-.608-.1,1.771,1.771,0,0,0-1.139.407" transform="translate(-28.451 -23.024)" fill="none"/>
    </clipPath>
    <linearGradient id="linear-gradient-6" x1="-3.816" y1="7.927" x2="-3.682" y2="7.927" xlink:href="#linear-gradient-3"/>
    <clipPath id="clip-path-7">
      <path id="Path_457" data-name="Path 457" d="M26.189,29.578a5.362,5.362,0,0,1-.1,1.005,4.56,4.56,0,0,1-1.7,2.238,16.79,16.79,0,0,0-4.646,1.021,6.387,6.387,0,0,1,.834-2.526,5.1,5.1,0,0,0-2.473,3.091,4.926,4.926,0,0,0-.133.6,4.531,4.531,0,0,1-1.831,2.725,9.493,9.493,0,0,0,4.6-2.533l.021.013A23.413,23.413,0,0,1,0,43.037a23.365,23.365,0,0,0,6.948,1.05,23.7,23.7,0,0,0,2.837-.172A23.325,23.325,0,0,0,24.34,36.327,6.314,6.314,0,0,0,22.271,24.42a5.355,5.355,0,0,1,3.918,5.158" transform="translate(0 -24.42)" fill="none"/>
    </clipPath>
    <linearGradient id="linear-gradient-7" x1="0" y1="1.498" x2="0.019" y2="1.498" xlink:href="#linear-gradient-3"/>
    <clipPath id="clip-path-8">
      <path id="Path_458" data-name="Path 458" d="M46.5,15.305a5.439,5.439,0,0,0-1.051,1.266,6.081,6.081,0,0,1,7.217,1.119,4.7,4.7,0,0,0-2.553-2.846,3.642,3.642,0,0,0-1.469-.312,3.27,3.27,0,0,0-2.143.774" transform="translate(-45.446 -14.531)" fill="none"/>
    </clipPath>
    <linearGradient id="linear-gradient-8" x1="-3.314" y1="10.975" x2="-3.241" y2="10.975" xlink:href="#linear-gradient-3"/>
    <clipPath id="clip-path-9">
      <path id="Path_459" data-name="Path 459" d="M30.556,5.843a9.821,9.821,0,0,0-2.121.792c-7.639-.42-11.865,3.538-12.372,9A19.9,19.9,0,0,0,15.371,33.2c.063-.018.124-.038.187-.057a22.342,22.342,0,0,1-.658-3.83A11.016,11.016,0,0,1,16.557,26.6a11.187,11.187,0,0,0-1.729,1.408c0-.194-.009-.388-.009-.584a22.49,22.49,0,0,1,.336-3.856,11,11,0,0,1,2.054-2.634A11.108,11.108,0,0,0,15.484,22c.133-.534.284-1.061.455-1.579a18.118,18.118,0,0,1,2.284-5.155c-.224.032-.462.069-.7.109,1.221-3.261,2.117-4.605,5.821-6.6a12.478,12.478,0,0,1,3.606-1.2A9.932,9.932,0,0,0,24.7,9.966,9.873,9.873,0,0,1,38.15,10.4c.124.13.243.264.363.4s.256.294.381.445c.039.047.08.094.119.142.09.111.175.225.263.338a16.5,16.5,0,0,1,2.84,5.686q.132.481.236.972a16.5,16.5,0,0,1,.259,1.632c-.224-.178-.454-.345-.686-.508-.186-.13-.375-.255-.565-.375-.133-.084-.266-.166-.4-.245a14.083,14.083,0,0,0-7.625-1.9,13.983,13.983,0,0,1,6.809,3.857c.075.077.148.156.222.235s.139.147.207.223.107.124.16.185a14.016,14.016,0,0,1,3.285,7.307,19.1,19.1,0,0,0,1.282-5.95c.018-.341.028-.684.028-1.029a19.089,19.089,0,0,0-3.318-10.784,19.314,19.314,0,0,0-1.669-2.117c-.167-.183-.338-.362-.511-.538a9.882,9.882,0,0,0-9.27-2.528" transform="translate(-13.657 -5.556)" fill="none"/>
    </clipPath>
    <linearGradient id="linear-gradient-9" x1="-0.227" y1="1.425" x2="-0.21" y2="1.425" xlink:href="#linear-gradient-3"/>
    <clipPath id="clip-path-10">
      <path id="Path_460" data-name="Path 460" d="M27.761,69.737a21.854,21.854,0,0,0,8.091,1.9c.083,0,.167,0,.25,0,3.191-.172,1.826-1.033.859-1.356a2.94,2.94,0,0,1-.325-.131l-.319-.187a.9.9,0,0,1-.3-.346,1.644,1.644,0,0,1,.068-.854l.325-.6c.083-.237.082-.385-.119-.536l-.007-.005c-.128-.083-.518.143-.727.336a4.382,4.382,0,0,1-3.875,1.3,22.858,22.858,0,0,1-13.17-7.357,22.979,22.979,0,0,0,9.251,7.831" transform="translate(-18.51 -61.906)" fill="none"/>
    </clipPath>
    <linearGradient id="linear-gradient-10" x1="-0.469" y1="1.001" x2="-0.443" y2="1.001" xlink:href="#linear-gradient-3"/>
    <clipPath id="clip-path-11">
      <rect id="Rectangle_1037" data-name="Rectangle 1037" width="132.126" height="42.312" fill="none"/>
    </clipPath>
    <clipPath id="clip-path-12">
      <path id="Path_470" data-name="Path 470" d="M105.526,19.9H115.3v3.151h-9.777Zm-2.372-6.459V29.47h16.215V27.355H105.526V24.978H117.6V17.967H105.526V15.553h13.658V13.439Z" transform="translate(-103.154 -13.439)" fill="none"/>
    </clipPath>
    <linearGradient id="linear-gradient-11" x1="-3.348" y1="2.198" x2="-3.315" y2="2.198" gradientUnits="objectBoundingBox">
      <stop offset="0" stop-color="#f2cc6a"/>
      <stop offset="1" stop-color="#cda03b"/>
    </linearGradient>
    <clipPath id="clip-path-13">
      <path id="Path_471" data-name="Path 471" d="M145.038,27.527l-.537-.038.473-.258a17.389,17.389,0,0,0,3.265-2.271l.2-.179.058.262a4.58,4.58,0,0,1,.124.983A1.437,1.437,0,0,1,147,27.619c-.436,0-1.1-.031-1.962-.092m-2.4-10.458h4.794l-.057.2a5.774,5.774,0,0,1-.483,1.212l-.045.081h-4.208Zm6.728,1.28c.128-.342.26-.735.393-1.169l.035-.111h4.315v1.493h-4.821Zm-6.148-3.018a17.917,17.917,0,0,0,1.432-1.149l.045-.04h5.943l-1.71,1.475h-6.1Zm1.327-3.745a17.626,17.626,0,0,1-5.171,4.049c.466.4.866.753,1.192,1.063l.049.046v3.27h4.791l-.638.3a21.939,21.939,0,0,1-5.423,1.486c.3.52.556,1.012.776,1.466a30.564,30.564,0,0,0,6.093-2.03l.109-.054.079.092q.242.277.454.537l.117.142-.157.094a24.218,24.218,0,0,1-7.207,2.58c.275.518.521,1.009.731,1.463a25.694,25.694,0,0,0,6.993-3.35l.135-.1.089.139a7.46,7.46,0,0,1,.376.658l.058.116-.1.079a22.34,22.34,0,0,1-8.6,3.966c.333.624.617,1.2.845,1.707a30.048,30.048,0,0,0,4.168-1.713l.167-.086.055.18c.187.614.351,1.2.488,1.748h2.65c2.177-.964,3.281-1.932,3.281-2.88a7.3,7.3,0,0,0-.388-2.288l-.045-.136,1.106-.486.067.134a15.663,15.663,0,0,0,3.684,4.972c.468-.493,1.051-1.049,1.737-1.657a11.749,11.749,0,0,1-3.811-4.019l-.089-.15,2.62-1.218-1.175-1.69-.506.29a45.824,45.824,0,0,1-4.286,2.18l-.123.054-.073-.113a9.577,9.577,0,0,0-1.73-1.973l-.145-.128.155-.117c.072-.054.141-.107.207-.162l.043-.035h7.934v-4.4h-4.521l1.741-1.411V12.764h-7.263l.223-.26c.253-.3.5-.6.737-.918Z" transform="translate(-139.294 -11.586)" fill="none"/>
    </clipPath>
    <linearGradient id="linear-gradient-12" x1="-4.114" y1="2.029" x2="-4.085" y2="2.029" xlink:href="#linear-gradient-11"/>
    <clipPath id="clip-path-14">
      <path id="Path_472" data-name="Path 472" d="M200.017,36.444l1.833,1.012.073-.088c.588-.7,1.2-1.468,1.832-2.276l-2.02-1.06c-.528.795-1.106,1.6-1.718,2.412" transform="translate(-200.017 -34.032)" fill="none"/>
    </clipPath>
    <linearGradient id="linear-gradient-13" x1="-28.156" y1="7.126" x2="-28.015" y2="7.126" xlink:href="#linear-gradient-11"/>
    <clipPath id="clip-path-15">
      <path id="Path_473" data-name="Path 473" d="M182.874,17.159a27.658,27.658,0,0,0,3.825-3.221l.117-.119.112.123a20.57,20.57,0,0,0,3.818,3.214l.439.289h-8.717Zm2.837-5.364a20.324,20.324,0,0,1-7.978,5.619c.5.757.951,1.466,1.348,2.112.949-.524,1.86-1.068,2.712-1.616l.244-.156v1.622h3.516v1.862h-5.8v1.93h5.8v3.923h-7.272v1.931h17.024V27.092H187.98V23.169H193.8v-1.93H187.98V19.377h3.608V17.693l.238.141c.826.489,1.724.961,2.673,1.405q.564-.961,1.316-2.193a17.857,17.857,0,0,1-7.385-4.47l-.107-.112.668-.668Z" transform="translate(-177.734 -11.795)" fill="none"/>
    </clipPath>
    <linearGradient id="linear-gradient-14" x1="-5.173" y1="2.096" x2="-5.144" y2="2.096" xlink:href="#linear-gradient-11"/>
    <clipPath id="clip-path-16">
      <path id="Path_474" data-name="Path 474" d="M182.953,35.291c.68.82,1.256,1.542,1.71,2.148l.078.1,1.866-1.174c-.612-.793-1.213-1.533-1.79-2.2Z" transform="translate(-182.953 -34.166)" fill="none"/>
    </clipPath>
    <linearGradient id="linear-gradient-15" x1="-26.355" y1="7.207" x2="-26.21" y2="7.207" xlink:href="#linear-gradient-11"/>
    <clipPath id="clip-path-17">
      <path id="Path_475" data-name="Path 475" d="M240.913,24.927l-.257.51,1.992.93c1.238-2.6,2.322-5.051,3.221-7.29l-2.08-.886a65.705,65.705,0,0,1-2.877,6.735" transform="translate(-240.656 -18.192)" fill="none"/>
    </clipPath>
    <linearGradient id="linear-gradient-16" x1="-24.292" y1="4.004" x2="-24.191" y2="4.004" xlink:href="#linear-gradient-11"/>
    <clipPath id="clip-path-18">
      <path id="Path_476" data-name="Path 476" d="M226.925,12.251V26.719h-2.672V12.251h-2.372v10.39l-.305-.79c-.827-2.144-1.77-4.408-2.8-6.732L216.847,16c.964,2.3,1.941,4.851,2.908,7.587l2.126-.912v4.043H216.69v2.206h17.872V26.719h-5.3V12.251Z" transform="translate(-216.69 -12.251)" fill="none"/>
    </clipPath>
    <linearGradient id="linear-gradient-17" x1="-6.381" y1="2.151" x2="-6.351" y2="2.151" xlink:href="#linear-gradient-11"/>
  </defs>
  <g id="Group_794" data-name="Group 794" transform="translate(6.426 32.964)">
    <g id="Group_793" data-name="Group 793" clip-path="url(#clip-path)">
      <rect id="Rectangle_1027" data-name="Rectangle 1027" width="6.001" height="3.97" transform="translate(0 0)" fill="url(#linear-gradient)"/>
    </g>
  </g>
  <g id="Group_796" data-name="Group 796" transform="translate(0.5)">
    <g id="Group_795" data-name="Group 795" clip-path="url(#clip-path-2)">
      <rect id="Rectangle_1028" data-name="Rectangle 1028" width="28.342" height="31.129" transform="translate(0 0)" fill="url(#linear-gradient-2)"/>
    </g>
  </g>
  <g id="Group_798" data-name="Group 798" transform="translate(24.03 20.213)">
    <g id="Group_797" data-name="Group 797" clip-path="url(#clip-path-3)">
      <rect id="Rectangle_1029" data-name="Rectangle 1029" width="7.348" height="17.661" transform="translate(0 0)" fill="url(#linear-gradient-3)"/>
    </g>
  </g>
  <g id="Group_800" data-name="Group 800" transform="translate(14.894 28.903)">
    <g id="Group_799" data-name="Group 799" clip-path="url(#clip-path-4)">
      <rect id="Rectangle_1030" data-name="Rectangle 1030" width="9.521" height="10.183" transform="translate(0 0)" fill="url(#linear-gradient-4)"/>
    </g>
  </g>
  <g id="Group_802" data-name="Group 802" transform="translate(27.965 15.975)">
    <g id="Group_801" data-name="Group 801" clip-path="url(#clip-path-5)">
      <rect id="Rectangle_1031" data-name="Rectangle 1031" width="8.42" height="19.023" transform="translate(0 0)" fill="url(#linear-gradient-5)"/>
    </g>
  </g>
  <g id="Group_804" data-name="Group 804" transform="translate(14.972 12.116)">
    <g id="Group_803" data-name="Group 803" clip-path="url(#clip-path-6)">
      <rect id="Rectangle_1032" data-name="Rectangle 1032" width="3.923" height="3.809" transform="translate(0 0)" fill="url(#linear-gradient-6)"/>
    </g>
  </g>
  <g id="Group_806" data-name="Group 806" transform="translate(0 12.851)">
    <g id="Group_805" data-name="Group 805" clip-path="url(#clip-path-7)">
      <rect id="Rectangle_1033" data-name="Rectangle 1033" width="27.816" height="19.667" transform="translate(0 0)" fill="url(#linear-gradient-7)"/>
    </g>
  </g>
  <g id="Group_808" data-name="Group 808" transform="translate(23.915 7.647)">
    <g id="Group_807" data-name="Group 807" clip-path="url(#clip-path-8)">
      <rect id="Rectangle_1034" data-name="Rectangle 1034" width="7.217" height="3.158" transform="translate(0 0)" fill="url(#linear-gradient-8)"/>
    </g>
  </g>
  <g id="Group_810" data-name="Group 810" transform="translate(7.187 2.924)">
    <g id="Group_809" data-name="Group 809" clip-path="url(#clip-path-9)">
      <rect id="Rectangle_1035" data-name="Rectangle 1035" width="31.667" height="27.645" transform="translate(0 0)" fill="url(#linear-gradient-9)"/>
    </g>
  </g>
  <g id="Group_812" data-name="Group 812" transform="translate(9.741 32.577)">
    <g id="Group_811" data-name="Group 811" clip-path="url(#clip-path-10)">
      <rect id="Rectangle_1036" data-name="Rectangle 1036" width="20.783" height="9.735" transform="translate(0 0)" fill="url(#linear-gradient-10)"/>
    </g>
  </g>
  <g id="Group_814" data-name="Group 814" transform="translate(0 0)">
    <g id="Group_813" data-name="Group 813" clip-path="url(#clip-path-11)">
      <path id="Path_461" data-name="Path 461" d="M106.268,59.4c-.141-.274-.489-.812-.77-1.235V62h-.6V58.343a8.785,8.785,0,0,1-1.2,2.162,2.783,2.783,0,0,0-.307-.555,8.419,8.419,0,0,0,1.425-2.6H103.5v-.58h1.392V55.518c-.382.074-.771.141-1.135.19a2.847,2.847,0,0,0-.183-.48,12.554,12.554,0,0,0,2.634-.663l.373.489a7.324,7.324,0,0,1-1.085.332v1.383h1.218v.58H105.5V57.5c.257.29.969,1.2,1.143,1.425Zm3.744.439V62h-.6V59.941l-2.7.448-.1-.589,2.8-.447v-4.9h.6v4.805l.969-.149.091.564Zm-1.6-1.1a7.143,7.143,0,0,0-1.458-1.209l.38-.365a7.215,7.215,0,0,1,1.483,1.169Zm.182-2.187a6.447,6.447,0,0,0-1.317-1.177l.389-.356a6.136,6.136,0,0,1,1.35,1.135Z" transform="translate(-48.98 -25.796)" fill="#ca9d37"/>
      <path id="Path_462" data-name="Path 462" d="M122.944,58.633c-.331.1-.671.2-.994.3v2.345c0,.348-.091.514-.306.613a2.868,2.868,0,0,1-1.119.108,2.285,2.285,0,0,0-.2-.564c.4.008.754.008.854,0,.124,0,.166-.042.166-.157V59.113l-.994.29-.174-.6c.331-.074.729-.174,1.168-.3V56.694h-1.06v-.58h1.06V54.457h.6v1.657h.919v.58h-.919v1.64c.3-.083.613-.174.919-.266Zm4.408-.928a6.065,6.065,0,0,1-1.682,2.725,5.64,5.64,0,0,0,2.137,1.069,2.513,2.513,0,0,0-.4.53,5.955,5.955,0,0,1-2.212-1.2,7.568,7.568,0,0,1-2.352,1.185,2.355,2.355,0,0,0-.332-.555,6.811,6.811,0,0,0,2.245-1.052,6.606,6.606,0,0,1-1.359-2.27l.025-.008h-.273v-.572h1.772V56.321h-1.938v-.572h1.938v-1.3h.605v1.3h1.98v.572h-1.98v1.234h1.317l.1-.025ZM124,58.127a5.649,5.649,0,0,0,1.218,1.906,5.052,5.052,0,0,0,1.334-1.906Z" transform="translate(-56.936 -25.796)" fill="#ca9d37"/>
      <path id="Path_463" data-name="Path 463" d="M144.473,61.211v.58h-7.439v-.58h3.455V60.168h-2.6V59.6h2.6v-.928h.621V59.6h2.5v.564h-2.5v1.044Zm-5.7-4.142a2.648,2.648,0,0,1-1.242,1.98,2.83,2.83,0,0,0-.406-.431,2.148,2.148,0,0,0,1.077-1.549h-1v-.547h1.044V55.388h-.77v-.547h3.712v.547h-.771v1.135h.936v.547h-.936v1.773h-.58V57.069Zm.042-.547h1.019V55.388h-1.019v1.135Zm3.62,1.209h-.572V54.973h.572Zm1.549.514c0,.339-.066.5-.315.6a4.181,4.181,0,0,1-1.234.1,1.962,1.962,0,0,0-.207-.564,9.436,9.436,0,0,0,1.01,0c.125,0,.158-.033.158-.149v-3.67h.588Z" transform="translate(-64.922 -25.848)" fill="#ca9d37"/>
      <path id="Path_464" data-name="Path 464" d="M161.184,61.55v.6h-7.39v-.6h4.739c.066-.414.133-.869.2-1.333h-3.762c.29-1.086.655-2.891.878-4.258h-1.781v-.6h6.867v.6H156.5c-.066.422-.149.861-.241,1.326h2.883l.116-.033.455.058c-.107,1.118-.347,2.883-.547,4.241Zm-2.378-1.913c.091-.646.157-1.268.215-1.773h-2.866c-.124.629-.248,1.251-.365,1.773Z" transform="translate(-72.862 -26.228)" fill="#ca9d37"/>
      <path id="Path_465" data-name="Path 465" d="M173.05,60.5v1.648h-.538V60.6l-2.138.365-.133-.58c.166-.025.339-.042.53-.066V55.5h-.456v-.563h3.1V55.5h-.365v4.457l.647-.1.041.53Zm-1.731-3.844h1.193V55.5h-1.193Zm0,1.707h1.193V57.177h-1.193Zm0,1.872c.373-.058.779-.124,1.194-.19v-1.16h-1.194Zm4.416-1.309a4.1,4.1,0,0,0,2.138,2.7,2.212,2.212,0,0,0-.406.514,4.346,4.346,0,0,1-1.972-2.295,4.664,4.664,0,0,1-1.88,2.378,2.109,2.109,0,0,0-.456-.439,3.955,3.955,0,0,0,1.93-2.857h-1.64v-.564h1.7c.016-.182.016-.348.016-.514v-.986h-1.508v-.571H175.7a9.594,9.594,0,0,0,.9-1.566l.613.174c-.265.472-.572.986-.853,1.392h1.118v.571h-1.7v.994c0,.166,0,.324-.016.506h2.022v.564Zm-1-2.684a5.586,5.586,0,0,0-.8-1.284l.489-.24a5.33,5.33,0,0,1,.837,1.25Z" transform="translate(-80.654 -25.923)" fill="#ca9d37"/>
      <path id="Path_466" data-name="Path 466" d="M194.511,61.655c0,.389-.108.58-.373.688a4.754,4.754,0,0,1-1.458.108,3.044,3.044,0,0,0-.232-.614c.547.025,1.086.017,1.243.017s.216-.058.216-.2V55.989h-5.568v6.47h-.613v-7.05h6.785ZM190.75,60.52c-.157-.3-.38-.663-.629-1.052a6.629,6.629,0,0,1-1.234,1.963,4.7,4.7,0,0,0-.48-.339,5.638,5.638,0,0,0,1.326-2.171c-.365-.522-.771-1.06-1.144-1.516l.38-.339c.324.373.655.8.969,1.226a14.718,14.718,0,0,0,.373-1.731l.563.058a14.979,14.979,0,0,1-.53,2.237c.324.464.613.911.812,1.268Zm2.386.249a13.258,13.258,0,0,0-.679-1.26A6.342,6.342,0,0,1,191.2,61.5a3.645,3.645,0,0,0-.489-.339,5.442,5.442,0,0,0,1.383-2.229c-.356-.522-.754-1.06-1.127-1.524l.4-.306c.315.364.63.779.928,1.192a13.114,13.114,0,0,0,.357-1.714l.555.058a13.8,13.8,0,0,1-.514,2.237,12.147,12.147,0,0,1,.878,1.541Z" transform="translate(-88.938 -26.251)" fill="#ca9d37"/>
      <path id="Path_467" data-name="Path 467" d="M206.386,58.715a4.026,4.026,0,0,0-.008.547,13.728,13.728,0,0,0-2.576.6,3.513,3.513,0,0,0-.2-.58c.19-.041.389-.248.646-.539a11.257,11.257,0,0,0,.886-1.1,5.542,5.542,0,0,0-1.383.248,4.692,4.692,0,0,0-.207-.6c.157-.033.3-.224.489-.505a11.8,11.8,0,0,0,1.168-2.336l.588.273a14.77,14.77,0,0,1-1.391,2.469l1.135-.124c.191-.282.373-.588.538-.886l.539.339A17.038,17.038,0,0,1,204.745,59Zm.041,2.071c-.961.257-1.955.514-2.7.713l-.124-.614c.687-.141,1.739-.389,2.759-.63Zm4.441-2.452a16.631,16.631,0,0,0-2.138-1.119,9.67,9.67,0,0,1-2.146,1.127,2.736,2.736,0,0,0-.373-.505,7.244,7.244,0,0,0,3.446-2.378H206.75v-.572h3.305l.107-.025.439.24a5.511,5.511,0,0,1-1.392,1.732,16.609,16.609,0,0,1,2,.994Zm-1.806,2.874h2.112v.58h-4.855v-.58h2.138v-2h-1.632v-.572h3.96V59.2h-1.723Z" transform="translate(-96.431 -25.796)" fill="#ca9d37"/>
      <path id="Path_468" data-name="Path 468" d="M222.4,57.081c.2-.282.4-.572.572-.869l.547.356a16.641,16.641,0,0,1-2.046,2.494l1.839-.249a2.659,2.659,0,0,0,.024.522,13.649,13.649,0,0,0-2.809.522,5.088,5.088,0,0,0-.2-.6,1.633,1.633,0,0,0,.688-.522,11.467,11.467,0,0,0,.952-1.094,6.037,6.037,0,0,0-1.5.24,3.549,3.549,0,0,0-.2-.6c.157-.042.315-.224.514-.506a11.881,11.881,0,0,0,1.3-2.3l.613.273a14.891,14.891,0,0,1-1.524,2.436Zm-2.079,3.86c.762-.124,1.921-.332,3.048-.555l.05.564-3,.6Zm6.395.339c.464,0,.539-.207.588-1.375a2.052,2.052,0,0,0,.588.256c-.091,1.334-.29,1.707-1.127,1.707h-1.731c-.878,0-1.143-.207-1.143-.978V57.7h2.857v-2.1H223.76V55h3.6v3.712h-.613V58.29h-2.237v2.6c0,.324.091.389.572.389Z" transform="translate(-104.357 -25.811)" fill="#ca9d37"/>
      <path id="Path_469" data-name="Path 469" d="M244.572,55.321v.53h-7.224v-.53h3.438a7.044,7.044,0,0,0-.323-.762l.6-.157a8.536,8.536,0,0,1,.4.919Zm-.456,5.99c0,.323-.083.464-.323.555a5.77,5.77,0,0,1-1.367.083,1.656,1.656,0,0,0-.19-.472c.514.017.994.008,1.127,0s.182-.042.182-.174V57.558h-5.137v4.424h-.588V57.045h3.819a7.872,7.872,0,0,0,.613-1.127l.655.141c-.207.339-.423.7-.638.986h1.847Zm-3.578-3.4a8.874,8.874,0,0,1-1.6,1.408,2.657,2.657,0,0,0-.281-.48,7.451,7.451,0,0,0,1.441-1.135Zm-.887-2.047a10.021,10.021,0,0,1,.522.919l-.564.224c-.107-.24-.331-.655-.514-.961Zm.307,5.07v.382h-.538V59.058h3.024v1.88Zm0-.456h1.972v-.961h-1.972Zm3.1-1.192a17.84,17.84,0,0,0-1.615-1.276l.348-.365c.538.365,1.259.886,1.632,1.209Z" transform="translate(-112.447 -25.774)" fill="#ca9d37"/>
    </g>
  </g>
  <g id="Group_816" data-name="Group 816" transform="translate(54.284 7.072)">
    <g id="Group_815" data-name="Group 815" clip-path="url(#clip-path-12)">
      <rect id="Rectangle_1038" data-name="Rectangle 1038" width="16.215" height="16.031" transform="translate(0 0)" fill="url(#linear-gradient-11)"/>
    </g>
  </g>
  <g id="Group_818" data-name="Group 818" transform="translate(73.302 6.097)">
    <g id="Group_817" data-name="Group 817" clip-path="url(#clip-path-13)">
      <rect id="Rectangle_1039" data-name="Rectangle 1039" width="17.816" height="17.853" transform="translate(0 0)" fill="url(#linear-gradient-12)"/>
    </g>
  </g>
  <g id="Group_820" data-name="Group 820" transform="translate(105.256 17.909)">
    <g id="Group_819" data-name="Group 819" clip-path="url(#clip-path-14)">
      <rect id="Rectangle_1040" data-name="Rectangle 1040" width="3.738" height="3.424" transform="translate(0 0)" fill="url(#linear-gradient-13)"/>
    </g>
  </g>
  <g id="Group_822" data-name="Group 822" transform="translate(93.53 6.207)">
    <g id="Group_821" data-name="Group 821" clip-path="url(#clip-path-15)">
      <rect id="Rectangle_1041" data-name="Rectangle 1041" width="18.08" height="17.227" transform="translate(0 0)" fill="url(#linear-gradient-14)"/>
    </g>
  </g>
  <g id="Group_824" data-name="Group 824" transform="translate(96.277 17.979)">
    <g id="Group_823" data-name="Group 823" clip-path="url(#clip-path-16)">
      <rect id="Rectangle_1042" data-name="Rectangle 1042" width="3.653" height="3.376" transform="translate(0 0)" fill="url(#linear-gradient-15)"/>
    </g>
  </g>
  <g id="Group_826" data-name="Group 826" transform="translate(126.642 9.573)">
    <g id="Group_825" data-name="Group 825" clip-path="url(#clip-path-17)">
      <rect id="Rectangle_1043" data-name="Rectangle 1043" width="5.213" height="8.176" transform="translate(0 0)" fill="url(#linear-gradient-16)"/>
    </g>
  </g>
  <g id="Group_828" data-name="Group 828" transform="translate(114.03 6.447)">
    <g id="Group_827" data-name="Group 827" clip-path="url(#clip-path-18)">
      <rect id="Rectangle_1044" data-name="Rectangle 1044" width="17.872" height="16.674" transform="translate(0 0)" fill="url(#linear-gradient-17)"/>
    </g>
  </g>
</svg>
